<svg width="107" height="31" viewBox="0 0 107 31" fill="none" xmlns="http://www.w3.org/2000/svg">
<path d="M10.5033 4.5512V1.28516H0.824219V29.8686H4.41761V16.3952H8.90872V13.087H4.41761V4.5512H10.5033Z" fill="#1A1A1A"/>
<path d="M17.9724 0.878906C14.2575 0.878906 12.7051 2.79836 12.7051 5.73705V25.4201C12.7051 28.3588 14.2575 30.2782 17.9724 30.2782C21.6873 30.2782 23.2397 28.3588 23.2397 25.4201V5.73705C23.2397 2.79836 21.6873 0.878906 17.9724 0.878906ZM19.6885 25.5019C19.6885 26.4815 19.1578 27.0122 17.9724 27.0122C16.787 27.0122 16.2563 26.4815 16.2563 25.5019V5.65769C16.2563 4.67813 16.787 4.14743 17.9724 4.14743C19.1578 4.14743 19.6885 4.67813 19.6885 5.65769V25.5019Z" fill="#1A1A1A"/>
<path d="M33.1271 1.28906V25.5029C33.1271 26.4825 32.5964 27.0132 31.411 27.0132C30.2256 27.0132 29.6949 26.4825 29.6949 25.5029V1.28906H26.1016V25.4236C26.1016 28.3622 27.7358 30.2817 31.411 30.2817C35.0863 30.2817 36.7627 28.3622 36.7627 25.4236V1.28906H33.1271Z" fill="#1A1A1A"/>
<path d="M50.3565 26.4031V19.9504C50.3565 18.0731 50.0688 16.8455 47.946 16.2355C49.6621 15.866 50.1109 14.6012 50.1109 13.0091V4.88245C50.1109 2.71749 48.6404 1.28906 46.4332 1.28906H39.6953V29.8725H43.2887V17.4581H44.5535C45.9025 17.4581 46.7606 18.0309 46.7606 19.7049V24.8085C46.7606 27.3008 46.8821 28.6078 47.9038 29.8725H51.1699C50.6392 28.8111 50.354 27.6257 50.354 26.4031H50.3565ZM46.5151 13.4158C46.5151 14.0284 46.3117 14.2342 45.6967 14.2342H43.2887V4.5551H45.6967C46.3092 4.5551 46.5151 4.75846 46.5151 5.37348V13.4183V13.4158Z" fill="#1A1A1A"/>
<path d="M61.0819 1.28906H53.8555V29.8725H61.0819C63.3287 29.8725 64.7596 28.4441 64.7596 26.2791V4.88245C64.7596 2.71749 63.3287 1.28906 61.0819 1.28906ZM61.2059 25.7906C61.2059 26.4031 61.0026 26.6089 60.3876 26.6089H57.4464V4.55262H60.3876C61.0001 4.55262 61.2059 4.75598 61.2059 5.37099V25.7906Z" fill="#1A1A1A"/>
<path d="M72.8904 0.878906C69.1755 0.878906 67.623 2.79836 67.623 5.73705V25.4201C67.623 28.3588 69.1755 30.2782 72.8904 30.2782C76.6053 30.2782 78.1577 28.3588 78.1577 25.4201V5.73705C78.1577 2.79836 76.6053 0.878906 72.8904 0.878906ZM74.604 25.5019C74.604 26.4815 74.0733 27.0122 72.8879 27.0122C71.7025 27.0122 71.1718 26.4815 71.1718 25.5019V5.65769C71.1718 4.67813 71.7025 4.14743 72.8879 4.14743C74.0733 4.14743 74.604 4.67813 74.604 5.65769V25.5019Z" fill="#1A1A1A"/>
<path d="M86.2888 0.878906C82.5739 0.878906 81.0215 2.79836 81.0215 5.73705V25.4201C81.0215 28.3588 82.5739 30.2782 86.2888 30.2782C90.0037 30.2782 91.5586 28.3588 91.5586 25.4201V5.73705C91.5586 2.79836 90.0062 0.878906 86.2888 0.878906ZM88.0024 25.5019C88.0024 26.4815 87.4717 27.0122 86.2863 27.0122C85.1009 27.0122 84.5727 26.4815 84.5727 25.5019V5.65769C84.5727 4.67813 85.1034 4.14743 86.2863 4.14743C87.4692 4.14743 88.0024 4.67813 88.0024 5.65769V25.5019Z" fill="#1A1A1A"/>
<path d="M105.499 26.4031V19.9504C105.499 18.0731 105.211 16.8455 103.091 16.2355C104.807 15.866 105.253 14.6012 105.253 13.0091V4.88245C105.253 2.71749 103.782 1.28906 101.58 1.28906H94.8398V29.8725H98.4332V17.4581H99.7005C101.047 17.4581 101.905 18.0309 101.905 19.7049V24.8085C101.905 27.3008 102.027 28.6078 103.048 29.8725H106.317C105.784 28.8111 105.499 27.6257 105.499 26.4031ZM101.66 13.4158C101.66 14.0284 101.456 14.2342 100.844 14.2342H98.4332V4.5551H100.844C101.454 4.5551 101.66 4.75846 101.66 5.37348V13.4183V13.4158Z" fill="#1A1A1A"/>
</svg>
